<svg xmlns="http://www.w3.org/2000/svg" data-name="Layer 1" viewBox="0 0 24 24" width="24" height="24"><path d="M12,9.88A2.13,2.13,0,1,1,9.88,12,2.13,2.13,0,0,1,12,9.88M12,9a3,3,0,1,0,3,3,3,3,0,0,0-3-3h0Zm9-4H3A1,1,0,0,0,2,6V18a1,1,0,0,0,1,1H21a1,1,0,0,0,1-1V6A1,1,0,0,0,21,5ZM4,7H6.13A2.13,2.13,0,0,1,4,9.13V7ZM4,17V14.88A2.13,2.13,0,0,1,6.13,17H4Zm16,0H17.88A2.13,2.13,0,0,1,20,14.88V17Zm0-3a3,3,0,0,0-3,3H7a3,3,0,0,0-3-3V10A3,3,0,0,0,7,7H17a3,3,0,0,0,3,3v4Zm0-4.87A2.13,2.13,0,0,1,17.88,7H20V9.13Z" class="large-icon" style="fill: currentColor"></path></svg>