<?xml version="1.0" encoding="utf-8"?>
<!DOCTYPE svg PUBLIC "-//W3C//DTD SVG 1.1//EN" "http://www.w3.org/Graphics/SVG/1.1/DTD/svg11.dtd">
<svg version="1.1" xmlns="http://www.w3.org/2000/svg" xmlns:xlink="http://www.w3.org/1999/xlink" x="0px" y="0px"
	 viewBox="0 0 56 56" enable-background="new 0 0 56 56" width="56px" height="56px" xml:space="preserve">
<g id="Instruction">
	<g>
		<g>
			<rect x="43" y="13" fill="#9BDAF3" width="6" height="30"/>
			<rect x="7" y="13" fill="#9BDAF3" width="6" height="30"/>
			<path fill="#FFFFFF" d="M15,47.5c-0.276,0-0.5-0.225-0.5-0.5V9c0-0.276,0.224-0.5,0.5-0.5h26c0.276,0,0.5,0.224,0.5,0.5v38
				c0,0.275-0.224,0.5-0.5,0.5H15z"/>
			<rect x="20" y="32" fill="#00A0DC" width="16" height="3"/>
			<rect x="22" y="37" fill="#00A0DC" width="12" height="3"/>
			<circle fill="#00A0DC" cx="28" cy="21" r="8"/>
			<path fill="#005E93" d="M50,10h-7V9c0-1.105-0.895-2-2-2H15c-1.105,0-2,0.895-2,2v1H6c-1.105,0-2,0.895-2,2v32
				c0,1.105,0.895,2,2,2h7v1c0,1.105,0.895,2,2,2h26c1.105,0,2-0.895,2-2v-1h7c1.105,0,2-0.895,2-2V12C52,10.895,51.105,10,50,10z
				 M13,43H7V13h6V43z M40,46H16V10h24V46z M49,43h-6V13h6V43z"/>
			<rect fill="none" width="56" height="56"/>
		</g>
	</g>
	<rect id="_x3C_Slice_x3E_" fill="none" width="56" height="56"/>
	<path fill="#FFFFFF" d="M33,25c0-1.177-0.891-1.996-2-2.389L29,22v-1c0.833-0.417,1-1,1-1v-2c0-1.227-0.773-2-2-2l0,0h0
		c-1.227,0-1.958,0.814-1.958,2.042v2c0,0,0.125,0.542,0.958,0.958v1l-2,0.611c-1.109,0.393-2,1.212-2,2.389H33z"/>
</g>
</svg>
