<svg xmlns="http://www.w3.org/2000/svg" viewBox="0 0 24 24" width="24px" height="24px"><path d="M12,2C6.5,2,2,6.5,2,12s4.5,10,10,10s10-4.5,10-10S17.5,2,12,2zM9.9,12c0-0.7,0-1.4,0.1-2.1h4c0.1,0.6,0.1,1.3,0.1,2.1c0,0.7,0,1.4-0.1,2.1h-4C9.9,13.4,9.9,12.8,9.9,12zM15.9,9.9h3.9c0.2,0.7,0.3,1.3,0.3,2.1s-0.1,1.4-0.3,2.1h-3.9c0.1-0.6,0.1-1.3,0.1-2C16,11.3,16,10.6,15.9,9.9zM19.1,8.1h-3.5c-0.3-1.5-0.7-2.8-1.2-3.8C16.4,4.9,18.1,6.3,19.1,8.1zM12.2,3.9c0.5,0.9,1.2,2.3,1.6,4.2h-3.5c0.4-1.9,1-3.3,1.6-4.2C11.9,3.9,12.1,3.9,12.2,3.9zM9.6,4.3c-0.5,1-0.9,2.3-1.2,3.8H4.9C5.9,6.3,7.6,4.9,9.6,4.3zM4.2,9.9h3.9C8,10.6,8,11.3,8,12c0,0.7,0,1.4,0.1,2H4.2C4,13.4,3.9,12.7,3.9,12S4,10.6,4.2,9.9zM4.9,15.9h3.5c0.3,1.5,0.7,2.8,1.2,3.8C7.6,19.1,5.9,17.7,4.9,15.9zM11.8,20.1c-0.5-0.9-1.1-2.3-1.5-4.2h3.5c-0.4,1.9-1,3.3-1.5,4.2C12.1,20.1,11.9,20.1,11.8,20.1zM14.5,19.7c0.4-1,0.9-2.3,1.2-3.8h3.5C18.1,17.7,16.4,19.1,14.5,19.7z" class="large-icon" style="fill: currentColor"></path></svg>