<svg xmlns="http://www.w3.org/2000/svg" data-name="Layer 1" viewBox="0 0 64 64" width="64" height="64"><path fill="#85cbf8" d="M7 7H57V55H7z"/><path fill="#ace3ff" d="M54,12H10A3,3,0,0,1,7,9H7A2,2,0,0,1,9,7H55a2,2,0,0,1,2,2h0A3,3,0,0,1,54,12Z"/><path fill="#6fc6f0" d="M56,55H8a1,1,0,0,1-1-1H7a4,4,0,0,1,4-4H54a3,3,0,0,1,3,3v1A1,1,0,0,1,56,55Z"/><path fill="#8d6c9f" d="M55,6H9A3,3,0,0,0,6,9V53a3,3,0,0,0,3,3H55a3,3,0,0,0,3-3V9A3,3,0,0,0,55,6Zm1,47a1,1,0,0,1-1,1H9a1,1,0,0,1-1-1V9A1,1,0,0,1,9,8H55a1,1,0,0,1,1,1Z"/><path fill="#8d6c9f" d="M18 13V11a1 1 0 0 0-2 0v2a1 1 0 0 0 2 0zM12 10a1 1 0 0 0-1 1v2a1 1 0 0 0 2 0V11A1 1 0 0 0 12 10zM32 14a1 1 0 0 0 1-1V11a1 1 0 0 0-2 0v2A1 1 0 0 0 32 14zM37 14a1 1 0 0 0 1-1V11a1 1 0 0 0-2 0v2A1 1 0 0 0 37 14zM42 14a1 1 0 0 0 1-1V11a1 1 0 0 0-2 0v2A1 1 0 0 0 42 14zM47 14a1 1 0 0 0 1-1V11a1 1 0 0 0-2 0v2A1 1 0 0 0 47 14zM52 10a1 1 0 0 0-1 1v2a1 1 0 0 0 2 0V11A1 1 0 0 0 52 10zM22 10a1 1 0 0 0-1 1v2a1 1 0 0 0 2 0V11A1 1 0 0 0 22 10zM27 14a1 1 0 0 0 1-1V11a1 1 0 0 0-2 0v2A1 1 0 0 0 27 14z"/><path fill="#f5f5f5" d="M45 40H22a1 1 0 0 0 0 2H45a1 1 0 0 0 0-2zM43 32H22a1 1 0 0 0 0 2H43a1 1 0 0 0 0-2zM47 24H22a1 1 0 0 0 0 2H47a1 1 0 0 0 0-2zM16 39A2 2 0 1 0 16 43 2 2 0 1 0 16 39zM16 31A2 2 0 1 0 16 35 2 2 0 1 0 16 31zM16 23A2 2 0 1 0 16 27 2 2 0 1 0 16 23z"/></svg>