<svg xmlns="http://www.w3.org/2000/svg" data-name="Layer 1" viewBox="0 0 64 64" width="64" height="64"><path fill="#f283a5" d="M32 3A6 6 0 1 0 32 15A6 6 0 1 0 32 3Z"/><path fill="#85cbf8" d="M48 25A6 6 0 1 0 48 37 6 6 0 1 0 48 25zM16 25A6 6 0 1 0 16 37 6 6 0 1 0 16 25z"/><path fill="#72caaf" d="M56 49A6 6 0 1 0 56 61 6 6 0 1 0 56 49zM40 49A6 6 0 1 0 40 61 6 6 0 1 0 40 49zM24 49A6 6 0 1 0 24 61 6 6 0 1 0 24 49zM8 49A6 6 0 1 0 8 61 6 6 0 1 0 8 49z"/><path fill="#ed7899" d="M26,9A6,6,0,0,0,38,9Z"/><path fill="#6fc6f0" d="M42 31a6 6 0 0 0 12 0zM10 31a6 6 0 0 0 12 0z"/><path fill="#66bfa1" d="M50 55a6 6 0 0 0 12 0zM34 55a6 6 0 0 0 12 0zM18 55a6 6 0 0 0 12 0zM2 55a6 6 0 0 0 12 0z"/><path fill="#8d6c9f" d="M56,48a6.36,6.36,0,0,0-1.24.12L51.14,37.25h0A7,7,0,0,0,48,24a6.88,6.88,0,0,0-3.26.81L36.88,14a7,7,0,1,0-9.76,0l-7.86,10.8A6.88,6.88,0,0,0,16,24a7,7,0,0,0-3.14,13.25h0L9.24,48.12A6.36,6.36,0,0,0,8,48a7,7,0,1,0,3.14.75l3.62-10.87a6.47,6.47,0,0,0,2.48,0l3.62,10.87A7,7,0,1,0,24,48a6.36,6.36,0,0,0-1.24.12L19.14,37.25A7,7,0,0,0,20.88,26l7.86-10.8a7,7,0,0,0,6.52,0L43.12,26a7,7,0,0,0,1.74,11.26L41.24,48.12A6.36,6.36,0,0,0,40,48a7,7,0,1,0,3.14.75l3.62-10.87a6.47,6.47,0,0,0,2.48,0l3.62,10.87A7,7,0,1,0,56,48ZM13,55a5,5,0,1,1-5-5,4,4,0,0,1,.6,0,4.91,4.91,0,0,1,1.9.63A5,5,0,0,1,13,55Zm10.4-5a4,4,0,0,1,.6,0,5,5,0,1,1-2.5.67A4.91,4.91,0,0,1,23.4,50ZM21,31a5,5,0,0,1-2.5,4.33,4.91,4.91,0,0,1-1.9.63,4.52,4.52,0,0,1-1.2,0,4.91,4.91,0,0,1-1.9-.63A5,5,0,0,1,16,26a4.93,4.93,0,0,1,2.07.45,5,5,0,0,1,1.62,1.18A4.94,4.94,0,0,1,21,31ZM34.07,13.55a5,5,0,0,1-4.14,0,5,5,0,0,1-1.62-1.18A4.94,4.94,0,0,1,27,9,5,5,0,0,1,37,9a4.94,4.94,0,0,1-1.31,3.37A5,5,0,0,1,34.07,13.55ZM45,55a5,5,0,1,1-5-5,4,4,0,0,1,.6,0,4.91,4.91,0,0,1,1.9.63A5,5,0,0,1,45,55Zm3.6-19a4.52,4.52,0,0,1-1.2,0,4.91,4.91,0,0,1-1.9-.63,5,5,0,0,1,.43-8.88A4.93,4.93,0,0,1,48,26a5,5,0,0,1,2.5,9.33A4.91,4.91,0,0,1,48.6,36ZM56,60a5,5,0,0,1-2.5-9.33A4.91,4.91,0,0,1,55.4,50a4,4,0,0,1,.6,0,5,5,0,0,1,0,10Z"/><path fill="#8d6c9f" d="M26.12 31v2a1 1 0 0 0 2 0V31a1 1 0 0 0-2 0zM33.12 31a1 1 0 0 0-2 0v2a1 1 0 1 0 2 0zM38.12 33V31a1 1 0 0 0-2 0v2a1 1 0 0 0 2 0z"/></svg>