<?xml version="1.0" encoding="utf-8"?>
<!-- Generator: Adobe Illustrator 17.1.0, SVG Export Plug-In . SVG Version: 6.00 Build 0)  -->
<!DOCTYPE svg PUBLIC "-//W3C//DTD SVG 1.1//EN" "http://www.w3.org/Graphics/SVG/1.1/DTD/svg11.dtd">
<svg version="1.1" xmlns="http://www.w3.org/2000/svg" xmlns:xlink="http://www.w3.org/1999/xlink" x="0px" y="0px"
	 viewBox="0 0 56 56" enable-background="new 0 0 56 56" width="56px" height="56px"  xml:space="preserve">
<g id="Design">
</g>
<g id="Specs">
</g>
<g id="Instruction">
	<g>
		<g>
			<polygon fill="#9BDAF3" stroke="#9BDAF3" stroke-miterlimit="10" points="23.5,31.596 19.899,35.197 7,12.597 10.588,9 			"/>
			<polygon fill="#9BDAF3" stroke="#9BDAF3" stroke-miterlimit="10" points="15.813,12 12.956,7 43.286,7 40.429,12 			"/>
			<polygon fill="#9BDAF3" stroke="#9BDAF3" stroke-miterlimit="10" points="36.342,35.197 32.742,31.596 45.654,9 49.241,12.597
							"/>
		</g>
		<path fill="#005E93" d="M51.245,10.381l-5.779-5.793C45.09,4.211,44.581,4,44.049,4H11.951c-0.531,0-1.041,0.211-1.416,0.587
			l-5.779,5.793c-0.954,0.956-1.151,2.433-0.482,3.606L19.121,40l8-8l-9.714-17h21.187l-9.714,17l8,8l14.847-26.014
			C52.396,12.813,52.199,11.337,51.245,10.381z M23.379,31.499L19.778,35.1l-12.899-22.6l3.588-3.597L23.379,31.499z M15.692,12
			l-2.857-5h30.33l-2.857,5H15.692z M36.222,35.1l-3.601-3.601L45.533,8.903l3.588,3.597L36.222,35.1z"/>
		<g>
			<path fill="#FFFFFF" d="M27.758,50.5c-5.514,0-10-4.486-10-10s4.486-10,10-10s10,4.486,10,10S33.272,50.5,27.758,50.5z"/>
			<g>
				<path fill="#005E93" d="M27.758,32c4.687,0,8.5,3.813,8.5,8.5s-3.813,8.5-8.5,8.5s-8.5-3.813-8.5-8.5S23.072,32,27.758,32
					 M27.758,29c-6.351,0-11.5,5.149-11.5,11.5S21.407,52,27.758,52c6.351,0,11.5-5.149,11.5-11.5S34.11,29,27.758,29L27.758,29z"/>
			</g>
		</g>
		<g>
			<path fill="#00A0DC" d="M27.758,45c-2.481,0-4.5-2.019-4.5-4.5s2.019-4.5,4.5-4.5s4.5,2.019,4.5,4.5S30.24,45,27.758,45z"/>
		</g>
	</g>
</g>
</svg>
